<svg width="25" height="16" viewBox="0 0 25 16" fill="none" xmlns="http://www.w3.org/2000/svg">
<g clip-path="url(#clip0_1_1995)">
<path opacity="0.5" fill-rule="evenodd" clip-rule="evenodd" d="M10.9282 13.4261C10.9282 13.6037 10.8033 13.7476 10.6493 13.7476C10.4953 13.7476 10.3704 13.6037 10.3704 13.4261V3.06899C10.3704 2.89153 10.4953 2.74756 10.6493 2.74756C10.8033 2.74756 10.9282 2.89153 10.9282 3.06899V8.80917H23.6961V7.3547C23.6961 7.17725 23.8211 7.03327 23.975 7.03327C24.129 7.03327 24.254 7.17725 24.254 7.3547V13.4261C24.254 13.6037 24.129 13.7476 23.975 13.7476C23.8211 13.7476 23.6961 13.6037 23.6961 13.4261V11.2377H10.9282V13.4261ZM23.6961 10.5949V9.45202H10.9282V10.5949H23.6961Z" fill="#222222"/>
<path opacity="0.5" fill-rule="evenodd" clip-rule="evenodd" d="M11.7556 6.63062C11.7556 5.6641 12.4355 4.88062 13.2741 4.88062C14.1124 4.88173 14.7917 5.66466 14.7927 6.63062C14.7927 7.59713 14.1128 8.38062 13.2741 8.38062C12.4355 8.38062 11.7556 7.59713 11.7556 6.63062ZM12.3134 6.63062C12.3134 7.24211 12.7435 7.73776 13.2741 7.73776C13.8045 7.73709 14.2342 7.24189 14.2348 6.63062C14.2348 6.01923 13.8046 5.52347 13.2741 5.52347C12.7435 5.52347 12.3134 6.01923 12.3134 6.63062Z" fill="#222222"/>
<path opacity="0.5" fill-rule="evenodd" clip-rule="evenodd" d="M22.6934 8.38058H15.5657C15.4117 8.38058 15.2867 8.23683 15.2867 8.05915V4.84487C15.2867 4.66741 15.4117 4.52344 15.5657 4.52344H19.9043C21.598 4.52567 22.9706 6.10748 22.9723 8.05915C22.9723 8.23683 22.8476 8.38058 22.6934 8.38058ZM19.9043 5.16629H15.8446V7.73772H22.399C22.2555 6.27455 21.1821 5.1683 19.9043 5.16629Z" fill="#222222"/>
<path d="M7.18538 11.4368V12.2048H1.29338V11.5928L4.78538 8.17283C5.22538 7.74083 5.52138 7.36883 5.67338 7.05683C5.83338 6.73683 5.91338 6.41683 5.91338 6.09683C5.91338 5.60083 5.74138 5.21683 5.39738 4.94483C5.06138 4.66483 4.57738 4.52483 3.94538 4.52483C2.96138 4.52483 2.19738 4.83683 1.65338 5.46083L1.04138 4.93283C1.36938 4.54883 1.78538 4.25283 2.28938 4.04483C2.80138 3.83683 3.37738 3.73283 4.01738 3.73283C4.87338 3.73283 5.54938 3.93683 6.04538 4.34483C6.54938 4.74483 6.80138 5.29683 6.80138 6.00083C6.80138 6.43283 6.70538 6.84883 6.51338 7.24883C6.32138 7.64883 5.95738 8.10883 5.42138 8.62883L2.56538 11.4368H7.18538Z" fill="#222222" fill-opacity="0.5"/>
</g>
<defs>
<clipPath id="clip0_1_1995">
<rect width="24" height="15" fill="white" transform="translate(0.825378 0.204834)"/>
</clipPath>
</defs>
</svg>
