<svg width="14" height="13" viewBox="0 0 14 13" fill="none" xmlns="http://www.w3.org/2000/svg">
<path opacity="0.504999" fill-rule="evenodd" clip-rule="evenodd" d="M12.364 6.44483V7.40483H13.197C13.312 7.40483 13.4053 7.51229 13.4053 7.64483V8.60483C13.4053 8.73737 13.312 8.84483 13.197 8.84483H12.364V11.9648C12.364 12.0974 12.2708 12.2048 12.1557 12.2048H11.3227C11.2077 12.2048 11.1145 12.0974 11.1145 11.9648V8.84483H3.20083V11.9648C3.20083 12.0974 3.10758 12.2048 2.99257 12.2048H2.15956C2.04455 12.2048 1.9513 12.0974 1.9513 11.9648V8.84483H1.11829C1.00328 8.84483 0.910034 8.73737 0.910034 8.60483V7.64483C0.910034 7.51229 1.00328 7.40483 1.11829 7.40483H1.9513V6.44483H1.5348C1.41979 6.44483 1.32654 6.33737 1.32654 6.20483V4.28483C1.32654 4.15229 1.41979 4.04483 1.5348 4.04483H1.9513V3.56483H1.5348C1.41979 3.56483 1.32654 3.45737 1.32654 3.32483V1.40483C1.32654 1.27229 1.41979 1.16483 1.5348 1.16483H1.9513V0.444834C1.9513 0.312294 2.04455 0.204834 2.15956 0.204834H2.99257C3.10758 0.204834 3.20083 0.312294 3.20083 0.444834V1.16483H11.1145V0.444834C11.1145 0.312294 11.2077 0.204834 11.3227 0.204834H12.1557C12.2708 0.204834 12.364 0.312294 12.364 0.444834V1.16483H12.7805C12.8955 1.16483 12.9888 1.27229 12.9888 1.40483V3.32483C12.9888 3.45737 12.8955 3.56483 12.7805 3.56483H12.364V4.04483H12.7805C12.8955 4.04483 12.9888 4.15229 12.9888 4.28483V6.20483C12.9888 6.33737 12.8955 6.44483 12.7805 6.44483H12.364ZM11.9475 0.684834H11.531V1.16483H11.9475V0.684834ZM2.36781 0.684834H2.78432V1.16483H2.36781V0.684834ZM1.74305 1.64483V3.08483H12.5723V1.64483H1.74305ZM11.9475 3.56483V4.04483H11.531V3.56483H11.9475ZM11.1145 4.04483V3.56483H3.20083V4.04483H11.1145ZM2.78432 3.56483V4.04483H2.36781V3.56483H2.78432ZM1.74305 4.52483V5.96483H12.5723V4.52483H1.74305ZM11.9475 6.44483V7.40483H11.531V6.44483H11.9475ZM11.1145 7.40483V6.44483H3.20083V7.40483H11.1145ZM2.78432 6.44483V7.40483H2.36781V6.44483H2.78432ZM2.36781 11.7248H2.78432V8.84483H2.36781V11.7248ZM11.9475 11.7248H11.531V8.84483H11.9475V11.7248ZM1.32654 8.36483H12.9888V7.88483H1.32654V8.36483Z" fill="#222222"/>
</svg>
