<svg width="16" height="11" viewBox="0 0 16 11" fill="none" xmlns="http://www.w3.org/2000/svg">
<path fill-rule="evenodd" clip-rule="evenodd" d="M15.1795 0.010376H0.820531C0.369219 0.010376 0 0.379595 0 0.830876V9.85653C0 10.3078 0.369219 10.6771 0.820531 10.6771H15.1795C15.6307 10.6771 16 10.3078 16 9.85653V0.830876C16 0.379595 15.6308 0.010376 15.1795 0.010376ZM14.8716 0.62572L8.472 5.42578C8.35694 5.51334 8.18031 5.56813 7.99997 5.56731C7.81966 5.56813 7.64306 5.51334 7.52797 5.42578L1.12841 0.62572H14.8716ZM14.9403 10.0502L11.4531 5.7425C11.3462 5.61041 11.3665 5.4165 11.4988 5.30966C11.6307 5.20278 11.8246 5.22309 11.9315 5.35519L15.3845 9.62078V1.01034L8.84094 5.91803C8.59481 6.10141 8.29531 6.18203 7.99994 6.18266C7.70416 6.18185 7.40491 6.10122 7.15894 5.91803L0.615375 1.01034V9.62084L4.0685 5.35519C4.17537 5.22306 4.36903 5.20281 4.50112 5.30966C4.63347 5.41675 4.65372 5.61041 4.54688 5.7425L1.05969 10.0502C1.05774 10.0526 1.05555 10.0546 1.05335 10.0567C1.05159 10.0583 1.04983 10.0599 1.04819 10.0617H14.9518C14.9503 10.0602 14.9488 10.0587 14.9472 10.0573C14.9448 10.0551 14.9424 10.0528 14.9403 10.0502Z" fill="#B2D235"/>
</svg>
