<svg width="30" height="30" viewBox="0 0 30 30" fill="none" xmlns="http://www.w3.org/2000/svg">
<mask id="mask0_1_2406" style="mask-type:luminance" maskUnits="userSpaceOnUse" x="0" y="0" width="30" height="31">
<path fill-rule="evenodd" clip-rule="evenodd" d="M0 15.3791C0 23.4531 6.547 30.0001 14.621 30.0001C22.696 30.0001 29.243 23.4531 29.243 15.3791C29.243 7.30408 22.696 0.75708 14.621 0.75708C6.547 0.75708 0 7.30408 0 15.3791Z" fill="white"/>
</mask>
<g mask="url(#mask0_1_2406)">
<path fill-rule="evenodd" clip-rule="evenodd" d="M0 15.3791C0 23.4531 6.547 30.0001 14.621 30.0001C22.696 30.0001 29.243 23.4531 29.243 15.3791C29.243 7.30408 22.696 0.75708 14.621 0.75708C6.547 0.75708 0 7.30408 0 15.3791Z" fill="url(#paint0_linear_1_2406)"/>
</g>
<path fill-rule="evenodd" clip-rule="evenodd" d="M9.90604 8.13513C10.812 8.13513 11.545 8.87013 11.545 9.77313C11.545 10.6781 10.812 11.4141 9.90604 11.4141C8.99804 11.4141 8.26404 10.6781 8.26404 9.77313C8.26404 8.87013 8.99804 8.13513 9.90604 8.13513ZM8.49004 21.7531H11.322V12.6561H8.49004V21.7531Z" fill="white"/>
<path fill-rule="evenodd" clip-rule="evenodd" d="M13.0957 12.6557H15.8077V13.8997H15.8447C16.2237 13.1837 17.1457 12.4307 18.5227 12.4307C21.3857 12.4307 21.9137 14.3137 21.9137 16.7637V21.7527H19.0877V17.3297C19.0877 16.2737 19.0667 14.9177 17.6177 14.9177C16.1467 14.9177 15.9217 16.0667 15.9217 17.2527V21.7527H13.0957V12.6557Z" fill="white"/>
<defs>
<linearGradient id="paint0_linear_1_2406" x1="14.6214" y1="-5.29908" x2="-6.05638" y2="15.3787" gradientUnits="userSpaceOnUse">
<stop stop-color="#0079B5"/>
<stop offset="1" stop-color="#0046E4"/>
</linearGradient>
</defs>
</svg>
