<svg width="16" height="13" viewBox="0 0 16 13" fill="none" xmlns="http://www.w3.org/2000/svg">
<path opacity="0.49628" fill-rule="evenodd" clip-rule="evenodd" d="M1.148 0.223145H14.48C14.8997 0.223145 15.2206 0.593009 15.2206 1.0767V6.76718C15.2206 7.25087 14.8997 7.62074 14.48 7.62074H1.148C0.728289 7.62074 0.407349 7.25087 0.407349 6.76718V1.0767C0.407349 0.593009 0.728289 0.223145 1.148 0.223145ZM14.48 7.05169C14.6281 7.05169 14.7269 6.93789 14.7269 6.76718H14.7268V1.0767C14.7268 0.905992 14.6281 0.792195 14.48 0.792195H1.148C1.02458 0.792195 0.901128 0.905992 0.901128 1.0767V6.76718C0.901128 6.93789 0.999872 7.05169 1.148 7.05169H14.48Z" fill="#222222"/>
<path opacity="0.49628" d="M6.82646 2.78386H8.80158C8.94971 2.78386 9.04846 2.67006 9.04846 2.49935C9.04846 2.32864 8.94971 2.21484 8.80158 2.21484H6.82646C6.67833 2.21484 6.57959 2.32864 6.57959 2.49935C6.57959 2.67006 6.67833 2.78386 6.82646 2.78386Z" fill="#222222"/>
<path opacity="0.49628" d="M13.9862 5.91364H1.64177C1.49364 5.91364 1.3949 6.02743 1.3949 6.19814C1.3949 6.36886 1.49364 6.48265 1.64177 6.48265H13.9862C14.1343 6.48265 14.233 6.36886 14.233 6.19814C14.233 6.02743 14.1343 5.91364 13.9862 5.91364Z" fill="#222222"/>
<path opacity="0.49628" d="M13.9862 4.77551H1.64177C1.49364 4.77551 1.3949 4.88931 1.3949 5.06002C1.3949 5.23073 1.49364 5.34453 1.64177 5.34453H13.9862C14.1343 5.34453 14.233 5.23073 14.233 5.06002C14.233 4.88931 14.1343 4.77551 13.9862 4.77551Z" fill="#222222"/>
<path opacity="0.49628" d="M7.93747 9.64088C7.6906 9.49861 7.56714 9.3279 7.56714 9.18563C7.56714 9.04336 7.71527 8.87264 7.91279 8.70193C8.03624 8.64502 8.06092 8.4743 8.01154 8.33207C7.96215 8.1898 7.81402 8.13291 7.6906 8.21827C7.29556 8.47434 7.07336 8.81576 7.07336 9.18566C7.07336 9.55553 7.29556 9.89698 7.6906 10.1815C7.93747 10.3238 8.06092 10.4945 8.06092 10.6367C8.06092 10.779 7.91279 10.9497 7.6906 11.092C7.56714 11.1489 7.51779 11.3196 7.59185 11.4618C7.64124 11.5472 7.7153 11.6041 7.81405 11.6041C7.86344 11.6041 7.88811 11.6041 7.9375 11.5757C8.33254 11.3196 8.55473 10.9782 8.55473 10.6083C8.55473 10.2384 8.33251 9.86851 7.93747 9.64088Z" fill="#222222"/>
<path opacity="0.49628" d="M5.22165 10.2099C4.97478 10.0676 4.85132 9.89693 4.85132 9.75466C4.85132 9.61239 4.99945 9.44167 5.19697 9.27096C5.32042 9.21405 5.36978 9.04334 5.29572 8.9011C5.24633 8.75883 5.0982 8.70195 4.97478 8.7873C4.57974 9.04337 4.35754 9.38479 4.35754 9.75469C4.35754 10.1246 4.57974 10.466 4.97478 10.7505C5.22165 10.8928 5.3451 11.0635 5.3451 11.2058C5.3451 11.348 5.19697 11.5188 4.97478 11.661C4.85132 11.7179 4.80197 11.8887 4.87603 12.0309C4.92542 12.1163 4.99948 12.1732 5.09823 12.1732C5.14761 12.1732 5.17229 12.1732 5.22168 12.1447C5.61672 11.8887 5.83891 11.5472 5.83891 11.1773C5.83891 10.8074 5.61669 10.4375 5.22165 10.2099Z" fill="#222222"/>
<path opacity="0.49628" d="M10.6532 10.2099C10.4063 10.0676 10.2828 9.89693 10.2828 9.75466C10.2828 9.61239 10.431 9.44167 10.6285 9.27096C10.7519 9.21405 10.7766 9.04334 10.7272 8.9011C10.6778 8.75883 10.5297 8.70195 10.4063 8.7873C10.0113 9.04337 9.78906 9.38479 9.78906 9.75469C9.78906 10.1246 10.0113 10.466 10.4063 10.7505C10.6532 10.8928 10.7766 11.0635 10.7766 11.2058C10.7766 11.348 10.6285 11.5188 10.4063 11.661C10.2828 11.7179 10.2335 11.8887 10.3076 12.0309C10.3569 12.1163 10.431 12.1732 10.5297 12.1732C10.5791 12.1732 10.6038 12.1732 10.6532 12.1447C11.0482 11.8887 11.2704 11.5472 11.2704 11.1773C11.2704 10.8074 11.0482 10.4375 10.6532 10.2099Z" fill="#222222"/>
</svg>
