<svg width="18" height="11" viewBox="0 0 18 11" fill="none" xmlns="http://www.w3.org/2000/svg">
<path fill-rule="evenodd" clip-rule="evenodd" d="M6.43677 4.30711C6.43677 2.89369 7.58662 1.74384 9.00004 1.74384C10.4135 1.74384 11.5633 2.89373 11.5633 4.30711C11.5633 5.7205 10.4134 6.87039 9.00004 6.87039C7.58666 6.87039 6.43677 5.72053 6.43677 4.30711ZM7.57601 4.30715C7.57601 5.09226 8.21472 5.73119 9.00004 5.73119C9.78537 5.73119 10.4241 5.09247 10.4241 4.30715C10.4241 3.52183 9.78537 2.88311 9.00004 2.88311C8.21472 2.88311 7.57601 3.52183 7.57601 4.30715Z" fill="#222222"/>
<path d="M9.00005 5.71222C6.89567 5.71222 5.18359 7.42429 5.18359 9.52868V10.3831C5.18359 10.6977 5.43858 10.9528 5.75323 10.9528C6.06784 10.9528 6.32287 10.6978 6.32287 10.3831V9.52868C6.32287 8.05239 7.5238 6.85146 9.00009 6.85146C10.4764 6.85146 11.6773 8.05261 11.6773 9.52868V10.3831C11.6773 10.6977 11.9323 10.9528 12.2469 10.9528C12.5616 10.9528 12.8166 10.6978 12.8166 10.3831V9.52868C12.8165 7.42429 11.1044 5.71222 9.00005 5.71222Z" fill="#222222"/>
<path fill-rule="evenodd" clip-rule="evenodd" d="M11.6202 2.5793C11.6202 1.16591 12.7701 0.0160217 14.1835 0.0160217C15.5969 0.0160217 16.7468 1.16591 16.7468 2.5793C16.7468 3.99269 15.5971 5.14258 14.1835 5.14258C12.7701 5.14258 11.6202 3.99269 11.6202 2.5793ZM12.7595 2.5793C12.7595 3.36462 13.3982 4.00334 14.1835 4.00334C14.9688 4.00334 15.6076 3.36462 15.6076 2.5793C15.6076 1.79398 14.9688 1.15526 14.1835 1.15526C13.3982 1.15526 12.7595 1.79398 12.7595 2.5793Z" fill="#222222"/>
<path d="M14.1835 3.98434C12.438 3.98434 10.9149 5.16746 10.4801 6.86167C10.4018 7.16623 10.5854 7.47666 10.89 7.55492C11.1947 7.63391 11.505 7.44973 11.5832 7.145C11.8889 5.95468 12.9583 5.12362 14.1836 5.12362C15.6598 5.12362 16.8608 6.32477 16.8608 7.80084V8.65527C16.8608 8.96989 17.1158 9.22491 17.4304 9.22491C17.745 9.22491 18.0001 8.96992 18 8.65527V7.8008C18 5.69645 16.2879 3.98434 14.1835 3.98434Z" fill="#222222"/>
<path fill-rule="evenodd" clip-rule="evenodd" d="M1.25317 2.5793C1.25317 1.16591 2.40303 0.0160217 3.81645 0.0160217C5.22987 0.0160217 6.37973 1.16591 6.37973 2.5793C6.37973 3.99269 5.22987 5.14258 3.81645 5.14258C2.40306 5.14258 1.25317 3.99269 1.25317 2.5793ZM2.39241 2.5793C2.39241 3.36462 3.03113 4.00334 3.81645 4.00334C4.60177 4.00334 5.24049 3.36462 5.24049 2.5793C5.24049 1.79398 4.60177 1.15526 3.81645 1.15526C3.03113 1.15526 2.39241 1.79398 2.39241 2.5793Z" fill="#222222"/>
<path d="M7.50115 6.84272C7.06901 5.15968 5.55381 3.98438 3.81646 3.98438C1.71207 3.98434 0 5.69645 0 7.8008V8.65523C0 8.96985 0.254988 9.22487 0.569637 9.22487C0.88425 9.22487 1.13927 8.96988 1.13927 8.65523V7.8008C1.13927 6.32473 2.34021 5.12358 3.81649 5.12358C5.03357 5.12358 6.09497 5.94687 6.39763 7.12597C6.47585 7.43053 6.78516 7.61355 7.09105 7.53611C7.39575 7.45788 7.57937 7.14728 7.50115 6.84272Z" fill="#222222"/>
</svg>
