<svg width="32" height="26" viewBox="0 0 32 26" fill="none" xmlns="http://www.w3.org/2000/svg">
<path fill-rule="evenodd" clip-rule="evenodd" d="M31.2381 2.08254H8.22857V0.812699C8.22857 0.391925 7.88754 0.0507946 7.46667 0.0507946H3.80952C3.38865 0.0507946 3.04762 0.391925 3.04762 0.812699V2.08254H0.761905C0.341029 2.08254 0 2.42367 0 2.84445V24.4825C0 24.9033 0.341029 25.2444 0.761905 25.2444H31.2381C31.659 25.2444 32 24.9033 32 24.4825V2.84445C32 2.42367 31.659 2.08254 31.2381 2.08254ZM4.57143 1.5746H6.70476V2.08254H4.57143V1.5746ZM1.52381 23.7206H30.4762V3.60635H1.52381V23.7206Z" fill="#B2D235"/>
<path fill-rule="evenodd" clip-rule="evenodd" d="M22.654 13.2063C22.654 16.8754 19.6691 19.8603 16 19.8603C12.331 19.8603 9.34607 16.8754 9.34607 13.2063C9.34607 9.53732 12.331 6.55238 16 6.55238C19.6691 6.55238 22.654 9.53732 22.654 13.2063ZM21.1302 13.2063C21.1302 10.3776 18.8288 8.07619 16 8.07619C13.1712 8.07619 10.8699 10.3776 10.8699 13.2063C10.8699 16.0351 13.1712 18.3365 16 18.3365C18.8288 18.3365 21.1302 16.0351 21.1302 13.2063Z" fill="#B2D235"/>
<path fill-rule="evenodd" clip-rule="evenodd" d="M20.1143 13.2063C20.1143 15.4749 18.2687 17.3206 16 17.3206C13.7314 17.3206 11.8857 15.4749 11.8857 13.2063C11.8857 10.9378 13.7314 9.09206 16 9.09206C18.2687 9.09206 20.1143 10.9378 20.1143 13.2063ZM18.5905 13.2063C18.5905 11.7779 17.4284 10.6159 16 10.6159C14.5716 10.6159 13.4096 11.7779 13.4096 13.2063C13.4096 14.6348 14.5716 15.7968 16 15.7968C17.4284 15.7968 18.5905 14.6348 18.5905 13.2063Z" fill="#B2D235"/>
<path fill-rule="evenodd" clip-rule="evenodd" d="M28.1904 9.90476H24.9396C24.5188 9.90476 24.1777 9.56363 24.1777 9.14286V5.89206C24.1777 5.47129 24.5188 5.13016 24.9396 5.13016H28.1904C28.6113 5.13016 28.9523 5.47129 28.9523 5.89206V9.14286C28.9523 9.56363 28.6113 9.90476 28.1904 9.90476ZM27.4285 6.65397H25.7015V8.38095H27.4285V6.65397Z" fill="#B2D235"/>
<path d="M3.91107 20.0635H6.85711C7.27798 20.0635 7.61901 19.7224 7.61901 19.3016C7.61901 18.8808 7.27798 18.5397 6.85711 18.5397H3.91107C3.4902 18.5397 3.14917 18.8808 3.14917 19.3016C3.14917 19.7224 3.4902 20.0635 3.91107 20.0635Z" fill="#B2D235"/>
<path d="M3.91107 22.1968H6.85711C7.27798 22.1968 7.61901 21.8557 7.61901 21.4349C7.61901 21.0141 7.27798 20.673 6.85711 20.673H3.91107C3.4902 20.673 3.14917 21.0141 3.14917 21.4349C3.14917 21.8557 3.4902 22.1968 3.91107 22.1968Z" fill="#B2D235"/>
</svg>
