<svg width="18" height="18" viewBox="0 0 18 18" fill="none" xmlns="http://www.w3.org/2000/svg">
<path d="M1.15514 9.92554H14.0581L8.42099 15.5626C7.97048 16.0131 7.97048 16.7524 8.42099 17.2029C8.87149 17.6534 9.59923 17.6534 10.0497 17.2029L17.6621 9.59055C18.1126 9.14004 18.1126 8.4123 17.6621 7.9618L10.0613 0.337862C9.84547 0.121559 9.55247 0 9.24691 0C8.94136 0 8.64835 0.121559 8.43254 0.337862C7.98203 0.788368 7.98203 1.51611 8.43254 1.96661L14.0581 7.61526H1.15514C0.519814 7.61526 0 8.13507 0 8.7704C0 9.40573 0.519814 9.92554 1.15514 9.92554Z" fill="white"/>
</svg>
