<svg width="19" height="16" viewBox="0 0 19 16" fill="none" xmlns="http://www.w3.org/2000/svg">
<g clip-path="url(#clip0_1_1961)">
<path opacity="0.499209" fill-rule="evenodd" clip-rule="evenodd" d="M10.2009 8.73391H16.2199C16.3877 8.73391 16.5238 8.89132 16.5238 9.08547V10.2464C16.5238 10.4078 16.4298 10.5437 16.3017 10.5851V11.5977C16.3017 12.4157 15.8534 13.1148 15.2261 13.3837L15.3835 13.6597C15.476 13.8218 15.4373 14.0398 15.2972 14.1468C15.2457 14.1861 15.1876 14.2049 15.1301 14.2049C15.0314 14.2049 14.9346 14.1493 14.8762 14.0469L14.5653 13.5017H8.06959L7.75869 14.0469C7.70028 14.1493 7.60346 14.2049 7.50474 14.2049C7.44729 14.2049 7.38922 14.1861 7.33767 14.1468C7.19756 14.0398 7.15888 13.8218 7.25134 13.6597L7.40873 13.3837C6.78144 13.1148 6.33315 12.4157 6.33315 11.5977V10.5851C6.20504 10.5437 6.11108 10.4078 6.11108 10.2464V9.08547C6.11108 8.89132 6.24716 8.73391 6.415 8.73391H6.73837V3.53337C6.73837 2.8008 7.25357 2.20483 7.88686 2.20483C8.37814 2.20483 8.81491 2.56617 8.9737 3.10399L9.09046 3.50116C9.7164 3.45187 10.3113 3.91019 10.4939 4.6349L10.5842 4.9934C10.6067 5.08291 10.5976 5.17915 10.5588 5.26087C10.52 5.34262 10.4548 5.40321 10.3774 5.42929L8.33924 6.11625C8.18339 6.17273 8.00477 6.05913 7.96243 5.87704L7.87215 5.51854C7.69198 4.80326 7.97117 4.05736 8.5081 3.70408L8.39836 3.33079C8.32374 3.07804 8.11811 2.90796 7.88686 2.90796C7.58873 2.90796 7.34621 3.18851 7.34621 3.53337V8.73391H7.95466C7.97457 8.56202 8.10152 8.42937 8.25555 8.42937H9.89996C10.054 8.42937 10.1809 8.56204 10.2009 8.73391ZM9.91558 4.85257L9.9103 4.83159C9.814 4.44923 9.51083 4.20035 9.18269 4.20035C9.11271 4.20035 9.04159 4.21167 8.97112 4.23544C8.57009 4.3706 8.33887 4.85796 8.45573 5.32186L8.46102 5.34283L9.91558 4.85257ZM8.55947 9.13249H9.59604V11.4051H8.55947V9.13249ZM15.6939 10.5033C15.6939 10.2986 15.7817 10.1173 15.9159 10.0069H15.916V9.43704H10.2039V11.7567C10.2039 11.9508 10.0678 12.1083 9.89998 12.1083H8.25557C8.08773 12.1083 7.95165 11.9508 7.95165 11.7567V9.43704H6.71893V10.0069C6.85321 10.1173 6.94099 10.2987 6.94099 10.5033V11.5977C6.94099 12.2599 7.40669 12.7986 7.97911 12.7986H14.6558C15.2282 12.7986 15.6939 12.2599 15.6939 11.5977V10.5033Z" fill="#222222"/>
<path d="M2.98899 3.80483V12.2048H2.12499V4.57283H0.144987V3.80483H2.98899Z" fill="#222222" fill-opacity="0.5"/>
</g>
<defs>
<clipPath id="clip0_1_1961">
<rect width="18" height="15" fill="white" transform="translate(0.0369873 0.204834)"/>
</clipPath>
</defs>
</svg>
