<svg width="30" height="30" viewBox="0 0 30 30" fill="none" xmlns="http://www.w3.org/2000/svg">
<mask id="mask0_1_2382" style="mask-type:luminance" maskUnits="userSpaceOnUse" x="0" y="0" width="30" height="30">
<path fill-rule="evenodd" clip-rule="evenodd" d="M0.468994 14.8731C0.468994 22.9481 7.01599 29.4951 15.091 29.4951C23.166 29.4951 29.712 22.9481 29.712 14.8731C29.712 6.79908 23.166 0.252075 15.091 0.252075C7.01599 0.252075 0.468994 6.79908 0.468994 14.8731Z" fill="white"/>
</mask>
<g mask="url(#mask0_1_2382)">
<path fill-rule="evenodd" clip-rule="evenodd" d="M0.468994 14.8731C0.468994 22.9481 7.01599 29.4951 15.091 29.4951C23.166 29.4951 29.712 22.9481 29.712 14.8731C29.712 6.79908 23.166 0.252075 15.091 0.252075C7.01599 0.252075 0.468994 6.79908 0.468994 14.8731Z" fill="url(#paint0_linear_1_2382)"/>
</g>
<path fill-rule="evenodd" clip-rule="evenodd" d="M17.6389 15.1495L13.6129 17.1415C13.4549 17.2265 12.9189 17.1125 12.9189 16.9325V12.8445C12.9189 12.6625 13.4599 12.5485 13.6179 12.6385L17.4709 14.7355C17.6329 14.8275 17.8019 15.0605 17.6389 15.1495ZM22.9189 12.7475C22.9189 10.8085 21.3469 9.23645 19.4079 9.23645H10.4299C8.49088 9.23645 6.91888 10.8085 6.91888 12.7475V16.9255C6.91888 18.8645 8.49088 20.4365 10.4299 20.4365H19.4079C21.3469 20.4365 22.9189 18.8645 22.9189 16.9255V12.7475Z" fill="white"/>
<defs>
<linearGradient id="paint0_linear_1_2382" x1="15.0908" y1="-5.80431" x2="-5.58696" y2="14.8735" gradientUnits="userSpaceOnUse">
<stop stop-color="#FF0000"/>
<stop offset="1" stop-color="#850000"/>
</linearGradient>
</defs>
</svg>
